<?xml version="1.0" encoding="utf-8" ?><svg xmlns="http://www.w3.org/2000/svg" xmlns:xlink="http://www.w3.org/1999/xlink" width="785" height="207" viewBox="0 0 785 207"><clipPath id="cl_3"><rect width="785" height="207"/></clipPath><g clip-path="url(#cl_3)"><path fill="#FFFFFE" transform="translate(-121 -207)" d="M0 0L1024 0L1024 612L0 612L0 0Z"/><path fill="#0E3A59" transform="translate(-121 -207)" d="M426.824 260.71C432.168 260.131 447.135 260.494 453.09 260.495L505.877 260.554C506.03 264.166 507.334 280.721 504.123 281.813C502.08 282.507 491.901 282.299 488.798 282.282L452.5 282.224C445.747 282.213 438.689 281.723 431.98 282.431C429.014 282.744 425.399 283.341 422.897 285.09C420.487 286.777 419.4 289.717 418.978 292.515C418.004 298.979 417.498 321.212 421.438 325.914C423.751 328.674 430.164 329.432 433.503 329.649C439.968 330.069 479.666 331.061 483.004 327.765C485.849 324.956 485.415 319.346 485.528 315.656C473.695 315.509 461.69 315.893 449.869 315.483C449.484 312.95 449.592 309.547 449.592 306.92C449.524 303.628 449.591 300.334 449.792 297.048C457.272 296.649 504.506 296.237 509.236 297.757C510.834 301.349 509.847 308.292 510.098 311.884C512.74 349.602 493.16 352.905 461.497 351.544C458.966 351.435 444.347 351.43 441.607 351.592C404.344 353.232 392.162 343.335 393.535 305.528C394.478 279.565 394.078 263.147 426.824 260.71Z"/><path fill="#0E3A59" transform="translate(-121 -207)" d="M662.944 260.575L729.421 260.499C740.467 260.495 751.833 260.365 762.889 260.659C764.118 260.82 766.389 260.829 767.164 262.115C769.766 266.43 768.058 273.639 768.394 278.635C768.495 280.149 767.095 282.908 766.118 283.717C760.79 288.129 754.737 291.835 748.962 295.672L717.204 316.723C711.289 320.642 703.472 325.515 698.01 329.825C719.534 329.722 748.119 328.83 768.956 329.993C769.105 334.459 770.19 348.988 767.918 351.493L696.793 351.562C686.422 351.564 675.817 351.837 665.513 351.205C660.859 350.92 661.421 342.699 661.495 339.578C661.595 335.392 660.742 329.845 664.539 327.017C671.541 321.8 678.982 317.13 686.249 312.324L732.256 281.971C718.469 282.266 704.678 282.367 690.887 282.272C681.947 282.277 671.782 282.509 662.923 282.064C662.553 277.66 662.443 264.876 662.944 260.575Z"/><path fill="#0E3A59" transform="translate(-121 -207)" d="M580.531 260.165C600.955 259.049 602.661 266.916 611.764 282.586C616.18 290.226 620.644 297.838 625.156 305.421L642.44 334.563C645.13 339.109 650.018 346.866 651.912 351.481L624.551 351.561C621.039 346.277 617.546 339.917 614.339 334.37C606.006 334.582 597.124 334.446 588.75 334.458L553.607 334.456C550.445 340.022 547.132 346.118 543.705 351.475C534.809 351.673 525.353 351.493 516.416 351.467C524.854 335 536.286 317.56 545.464 301.129C551.577 290.185 558.922 277.849 565.712 267.301C568.885 262.371 574.982 260.875 580.531 260.165Z"/><path fill="#FFFFFE" transform="translate(-121 -207)" d="M584.051 280.907C586.458 283.299 601.573 310.829 604.41 315.831C598.056 316.012 591.148 315.931 584.75 315.965L563.947 315.979C569.2 306.902 578.586 288.921 584.051 280.907Z"/><path fill="#0E3A59" transform="translate(-121 -207)" d="M876.692 260.578C884.687 260.329 893.459 260.506 901.472 260.589L901.509 282.25C901.428 325.929 909.365 354.857 852.472 351.606C840.383 351.503 829.51 351.906 817.316 351.31C775.377 349.339 787.634 307.408 785.755 279.243C785.426 274.302 785.63 265.405 786.105 260.596C793.892 260.354 802.682 260.555 810.546 260.561C810.938 264.775 810.735 271.979 810.72 276.372L810.657 303.517C810.662 315.099 808.401 329.516 824.489 329.607C837.825 329.682 851.08 330.083 864.494 329.47C871.862 329.132 875.154 325.64 876.244 318.247C877.302 299.378 875.999 279.424 876.692 260.578Z"/><defs><linearGradient id="gradient_0" gradientUnits="userSpaceOnUse" x1="285.10635" y1="413.5896" x2="296.99289" y2="284.09341"><stop offset="0" stop-color="#032E4E"/><stop offset="1" stop-color="#2F6B8A"/></linearGradient></defs><path fill="url(#gradient_0)" transform="translate(-121 -207)" d="M321.853 309.906C329.798 302.021 337.677 294.661 345.481 286.576C347.215 291.592 348.758 296.162 349.87 301.365C345.565 304.137 341.224 306.852 336.849 309.512L337.42 323.199C342.159 325.62 345.916 327.682 350.472 330.425C349.379 336.934 348.495 342.274 346.36 348.516C341.669 349.091 335.736 349.317 330.932 349.44L324.434 361.507C326.484 364.731 331.028 371.404 332.589 374.533C329.291 378.72 323.332 385.038 319.462 388.753C315.083 386.43 310.566 384.1 306.252 381.679L294.44 389.206C294.56 394.384 294.98 399.545 295.097 404.58C290.045 406.34 281.816 409.343 276.813 410.4C274.43 406.554 270.962 401.335 268.852 397.492C264.349 397.559 259.656 397.555 255.173 397.697C252.954 401.592 249.659 407.807 247.253 411.361C240.693 409.974 235.71 408.749 229.487 406.227L229.614 392.904C237.355 389.068 241.57 386.481 248.572 381.421C252.095 378.605 255.124 375.671 258.395 372.571C265.636 372.487 272.784 370.93 279.404 367.994C293.169 361.76 303.749 350.025 308.409 335.595C309.803 331.281 309.971 326.188 311.569 321.981L311.703 321.635C312.619 319.224 314.746 317.259 316.544 315.352C318.145 313.58 320.157 311.633 321.853 309.906Z"/><defs><linearGradient id="gradient_1" gradientUnits="userSpaceOnUse" x1="288.72852" y1="377.38925" x2="281.45844" y2="319.5968"><stop offset="0" stop-color="#04314E"/><stop offset="1" stop-color="#2D5A7A"/></linearGradient></defs><path fill="url(#gradient_1)" transform="translate(-121 -207)" d="M316.544 315.352C318.813 315.309 318.183 315 319.522 316.104C320.548 319.043 319.752 322.638 319.746 325.904C318.583 335.342 316.605 341.794 311.669 350.037C311.297 350.66 309.947 353.041 309.815 353.662C298.503 368.664 286.214 378.07 267.089 381.176C262.449 381.632 257.618 382.21 252.985 381.511L248.572 381.421C252.095 378.605 255.124 375.671 258.395 372.571C265.636 372.487 272.784 370.93 279.404 367.994C293.169 361.76 303.749 350.025 308.409 335.595C309.803 331.281 309.971 326.188 311.569 321.981L311.703 321.635C312.619 319.224 314.746 317.259 316.544 315.352Z"/><defs><linearGradient id="gradient_2" gradientUnits="userSpaceOnUse" x1="289.52289" y1="366.60812" x2="295.69754" y2="372.60602"><stop offset="0" stop-color="#8C6E5F"/><stop offset="1" stop-color="#C49F92"/></linearGradient></defs><path fill="url(#gradient_2)" transform="translate(-121 -207)" d="M309.815 353.662C309.438 355.844 309.587 357.124 309.955 359.305C300.042 371.191 289.65 379.25 274.443 383.259L273.655 382.922C273.997 382.613 274.338 382.363 274.737 382.135L274.444 380.95C273.06 380.528 269.559 381.571 267.457 381.857L267.089 381.176C286.214 378.07 298.503 368.664 309.815 353.662Z"/><path fill="#71605C" transform="translate(-121 -207)" d="M319.746 325.904L320.562 325.605C320.855 323.274 320.748 321.578 322.184 319.939L323.257 319.803C323.265 322.763 323.153 326.96 323.489 329.805C321.512 339.928 316.872 351.593 309.955 359.305C309.587 357.124 309.438 355.844 309.815 353.662C309.947 353.041 311.297 350.66 311.669 350.037C316.605 341.794 318.583 335.342 319.746 325.904Z"/><path fill="#424D57" transform="translate(-121 -207)" d="M267.089 381.176L267.457 381.857C269.559 381.571 273.06 380.528 274.444 380.95L274.737 382.135C274.338 382.363 273.997 382.613 273.655 382.922L274.443 383.259C270.667 385.069 252.712 386.917 250.06 383.295C250.902 381.841 251.06 382.168 252.985 381.511C257.618 382.21 262.449 381.632 267.089 381.176Z"/><path fill="#424D57" transform="translate(-121 -207)" d="M321.853 309.906C324.199 312.753 324.779 322.306 324.386 325.955C324.239 327.269 323.938 328.561 323.489 329.805C323.153 326.96 323.265 322.763 323.257 319.803L322.184 319.939C320.748 321.578 320.855 323.274 320.562 325.605L319.746 325.904C319.752 322.638 320.548 319.043 319.522 316.104C318.183 315 318.813 315.309 316.544 315.352C318.145 313.58 320.157 311.633 321.853 309.906Z"/><path fill="#0E3A59" transform="translate(-121 -207)" d="M305.449 287.64C313.586 280.302 322.285 272.942 329.384 264.662C329.983 263.963 329.604 264.019 330.282 264.052C328.441 268.12 318.456 280.273 315.199 283.837C288.708 312.907 253.929 337.516 217.201 351.343C195.567 359.488 162.371 367.157 140.479 357.29C111.871 344.395 132.65 313.172 146.939 299.264L148.514 301.165C143.405 308.448 136.377 319.912 138.715 328.886C146.538 358.912 194.706 345.46 213.98 340.157C216.924 338.702 223.125 336.579 226.453 335.253C232.89 332.681 239.223 329.856 245.439 326.787C269.59 314.962 284.191 303.224 305.449 287.64Z"/><path fill="#808185" transform="translate(-121 -207)" d="M213.98 340.157C216.924 338.702 223.125 336.579 226.453 335.253C232.89 332.681 239.223 329.856 245.439 326.787C269.59 314.962 284.191 303.224 305.449 287.64C303.717 292.028 296.286 297.327 292.639 300.43C272.734 317.363 251.22 330.776 227.354 341.314C225.541 342.114 224.29 342.549 222.299 342.644L222.1 342.232C226.236 341.189 243.173 333.62 246.064 330.886C245.711 329.653 245.723 329.519 244.926 328.554C239.752 329.475 219.167 341.275 213.98 340.157Z"/><path fill="#0E3A59" transform="translate(-121 -207)" d="M169.801 227.103C178.222 219.634 188.35 212.316 200.018 212.429C205.903 214.692 203.449 215.378 206.993 218.528C215.696 226.263 212.702 237.901 209.249 247.463C204.62 259.121 195.827 271.318 185.96 279.25C175.999 287.391 161.753 288.96 164.677 271.527C167.759 269.732 170.404 268.446 173.608 266.902C175.314 267.584 175.128 267.807 176.82 267.542C175.666 270.02 174.181 272.765 172.924 275.228C173.994 274.727 175.038 274.172 176.05 273.564C188.715 265.924 198.795 248.618 202.302 234.364C193.463 247.542 174.92 266.512 157.912 268.159C146.632 269.252 147.28 257.056 151.492 249.573C156.807 240.131 161.794 234.556 169.801 227.103Z"/><path fill="#FFFFFE" transform="translate(-121 -207)" d="M194.113 231.474C188.867 238.727 167.492 264.299 157.346 259.332C152.625 250.325 188.46 215.666 197.465 222.921L198.573 222.043C198.354 223.336 198.137 224.895 197.868 226.152L195.666 231.648L194.113 231.474Z"/><path fill="#0B1017" transform="translate(-121 -207)" d="M198.573 222.043C198.354 223.336 198.137 224.895 197.868 226.152L195.666 231.648L194.113 231.474C195.335 228.742 196.404 225.734 197.465 222.921L198.573 222.043Z"/><defs><linearGradient id="gradient_3" gradientUnits="userSpaceOnUse" x1="162.42432" y1="252.20016" x2="190.13538" y2="229.26778"><stop offset="0" stop-color="#65463A"/><stop offset="1" stop-color="#B16B3A"/></linearGradient></defs><path fill="url(#gradient_3)" transform="translate(-121 -207)" d="M189.803 227.436C190.779 227.463 190.348 227.311 191.128 227.94C190.814 235.078 170.022 251.957 163.197 254.883L162.329 254.693C162.405 254.152 162.449 253.684 162.684 253.182C167.892 242.08 178.993 232.455 189.803 227.436Z"/><defs><linearGradient id="gradient_4" gradientUnits="userSpaceOnUse" x1="173.13237" y1="224.02739" x2="176.68973" y2="226.83234"><stop offset="0" stop-color="#2E4554"/><stop offset="1" stop-color="#4F6B81"/></linearGradient></defs><path fill="url(#gradient_4)" transform="translate(-121 -207)" d="M169.801 227.103C178.222 219.634 188.35 212.316 200.018 212.429L196.246 213.811C194.696 214.296 193.6 214.609 192.009 214.971C190.862 216.559 190.673 216.788 190.415 218.747C178.412 223.608 177.466 226.96 169.219 231.178L168.637 230.716C169.247 229.286 169.69 228.771 170.613 227.555L169.801 227.103Z"/><path fill="#0B1017" transform="translate(-121 -207)" d="M169.801 227.103C178.222 219.634 188.35 212.316 200.018 212.429L196.246 213.811C194.696 214.296 193.6 214.609 192.009 214.971C184.456 217.267 176.645 222.547 170.613 227.555L169.801 227.103Z"/><path fill="#DEA071" transform="translate(-121 -207)" d="M196.246 213.811C206.7 215.708 203.662 224.534 199.778 231.151C198.404 229.459 198.316 228.286 197.868 226.152C198.137 224.895 198.354 223.336 198.573 222.043C198.223 219.99 197.813 219.724 196.471 218.642C194.465 217.999 192.524 218.461 190.415 218.747C190.673 216.788 190.862 216.559 192.009 214.971C193.6 214.609 194.696 214.296 196.246 213.811Z"/><path fill="#808185" transform="translate(-121 -207)" d="M195.666 231.648L197.868 226.152C198.316 228.286 198.404 229.459 199.778 231.151C198.07 234.26 196.865 235.678 194.67 238.395C194.166 238.32 193.884 238.11 193.393 237.869L193.102 236.086C194.038 234.865 194.922 233.04 195.666 231.648Z"/><path fill="#6E747C" transform="translate(-121 -207)" d="M189.884 240.343L193.102 236.086L193.393 237.869C193.884 238.11 194.166 238.32 194.67 238.395C193.832 239.465 192.62 241.119 191.716 242.056C191.069 241.574 190.467 240.92 189.884 240.343Z"/><path fill="#575D62" transform="translate(-121 -207)" d="M191.716 242.056C190.224 243.644 190.345 244.062 188.52 244.437L187.915 243.794C188.23 241.753 188.361 242.14 189.884 240.343C190.467 240.92 191.069 241.574 191.716 242.056Z"/><defs><linearGradient id="gradient_5" gradientUnits="userSpaceOnUse" x1="195.71974" y1="243.66301" x2="206.32968" y2="243.83781"><stop offset="0" stop-color="#808588"/><stop offset="1" stop-color="#CCB1A3"/></linearGradient></defs><path fill="url(#gradient_5)" transform="translate(-121 -207)" d="M192.836 259.921C197.483 252.321 201.185 246.169 203.957 237.567C204.969 234.423 205.546 229.429 206.747 227.051C210.915 235.941 202.124 252.284 197.077 259.852C196.493 258.89 196.35 258.456 195.353 257.919C194.449 259.1 194.27 259.492 192.836 259.921Z"/><path fill="#808185" transform="translate(-121 -207)" d="M192.836 259.921C194.27 259.492 194.449 259.1 195.353 257.919C196.35 258.456 196.493 258.89 197.077 259.852C194.954 262.487 193.043 264.917 190.693 267.365L190.137 267.318C189.039 266.299 189.387 266.596 189.112 264.717L192.836 259.921Z"/><path fill="#575D62" transform="translate(-121 -207)" d="M190.693 267.365C189.484 269.09 185.469 273.117 183.31 273.131L182.993 272.251C183.816 269.62 187.078 266.765 189.112 264.717C189.387 266.596 189.039 266.299 190.137 267.318L190.693 267.365Z"/><path fill="#DEA071" transform="translate(-121 -207)" d="M261.224 226.291C266.721 226.952 274.855 228.271 279.99 228.653C280.872 233.592 281.807 238.521 282.794 243.44C284.238 244.04 286.513 244.915 287.824 245.638C290.481 246.634 292.692 247.576 295.279 248.734C299.528 245.62 303.159 242.665 307.219 239.304C312.066 242.018 318.381 246.539 322.386 250.431C321.17 253.765 319.938 257.041 318.589 260.326C317.322 263.411 316.788 264.395 319.166 266.978C318.706 268.953 311.245 275.203 309.241 276.996L306.531 279.308C304.286 281.252 301.948 283.083 299.626 284.933C297.451 282.647 295.158 280.475 292.757 278.427C280.342 267.892 268.083 265.561 252.338 266.838C251.459 261.58 250.754 260.007 248.173 255.554C243.328 250.659 241.326 250.022 234.69 248.885C234.245 241.718 231.941 238.102 227.283 233.12L232.683 230.977C236.159 235.129 238.655 238.386 241.793 242.803C245.983 241.794 251.352 241.101 255.697 240.43L258.168 234.824C258.864 231.881 260.09 229.098 261.224 226.291Z"/><defs><linearGradient id="gradient_6" gradientUnits="userSpaceOnUse" x1="321.31583" y1="257.12738" x2="293.83023" y2="258.43716"><stop offset="0" stop-color="#8F4A28"/><stop offset="1" stop-color="#C98556"/></linearGradient></defs><path fill="url(#gradient_6)" transform="translate(-121 -207)" d="M307.219 239.304C312.066 242.018 318.381 246.539 322.386 250.431C321.17 253.765 319.938 257.041 318.589 260.326C317.322 263.411 316.788 264.395 319.166 266.978C318.706 268.953 311.245 275.203 309.241 276.996C302.272 268.207 296.57 264.75 287.079 259.12L287.418 259.04C290.381 260.284 291.115 260.769 293.753 262.654C293.605 258.724 294.248 253.792 294.255 249.41C292.083 248.241 289.868 247.269 287.624 246.253L287.824 245.638C290.481 246.634 292.692 247.576 295.279 248.734C299.528 245.62 303.159 242.665 307.219 239.304Z"/><defs><linearGradient id="gradient_7" gradientUnits="userSpaceOnUse" x1="302.37289" y1="264.65866" x2="252.01982" y2="272.39679"><stop offset="0" stop-color="#7F391E"/><stop offset="1" stop-color="#AA693D"/></linearGradient></defs><path fill="url(#gradient_7)" transform="translate(-121 -207)" d="M249.916 254.042C252.329 253.657 261.955 253.979 265.098 254.009C266.566 254.282 267.715 254.449 269.136 254.95C267.597 255.27 266.491 255.336 265.274 256.298L266.703 257.512C281.479 259.016 296.663 267.348 306.06 278.715C306.222 278.909 306.379 279.107 306.531 279.308C304.286 281.252 301.948 283.083 299.626 284.933C297.451 282.647 295.158 280.475 292.757 278.427C280.342 267.892 268.083 265.561 252.338 266.838C251.459 261.58 250.754 260.007 248.173 255.554L249.916 254.042Z"/><path fill="#BE774E" transform="translate(-121 -207)" d="M249.916 254.042C252.329 253.657 261.955 253.979 265.098 254.009C266.566 254.282 267.715 254.449 269.136 254.95C267.597 255.27 266.491 255.336 265.274 256.298L266.703 257.512C263.484 257.466 256.252 257.71 253.666 256.246L253.752 255.214C252.766 254.046 251.836 254.311 249.916 254.042Z"/><defs><linearGradient id="gradient_8" gradientUnits="userSpaceOnUse" x1="228.62195" y1="242.52328" x2="254.39371" y2="243.60307"><stop offset="0" stop-color="#9D6338"/><stop offset="1" stop-color="#C38458"/></linearGradient></defs><path fill="url(#gradient_8)" transform="translate(-121 -207)" d="M227.283 233.12L232.683 230.977C236.159 235.129 238.655 238.386 241.793 242.803C245.983 241.794 251.352 241.101 255.697 240.43L258.168 234.824C258.328 238.808 257.457 239.857 254.118 241.897C253.994 244.313 254.205 250.944 254.796 253.246C256.071 253.231 255.418 253.249 256.232 252.92C258.002 252.204 263.387 253.507 265.098 254.009C261.955 253.979 252.329 253.657 249.916 254.042L248.173 255.554C243.328 250.659 241.326 250.022 234.69 248.885C234.245 241.718 231.941 238.102 227.283 233.12Z"/><path fill="#A05D37" transform="translate(-121 -207)" d="M322.801 215.938C329.961 214.125 346.815 217.121 352.453 221.038C388.554 246.121 327.27 296.596 311.238 312.496C311.245 311.021 312.538 309.796 313.518 308.561L313.216 307.812L311.078 307.32C309.876 309.103 310.514 308.597 308.722 309.447C306.119 309.02 305.056 308.448 302.958 309.798C307.357 303.19 312.134 297.307 317.252 291.27L319.575 288.539C329.325 276.175 339.647 265.628 345.002 250.552C345.606 248.851 346.072 246.66 346.733 245.15L346.947 244.671C347.041 243.363 347.104 242.054 347.136 240.743C347.464 220.125 326.055 218.539 310.773 218.432L308.015 218.697L307.669 217.631C312.46 216.887 317.996 216.042 322.801 215.938Z"/><defs><linearGradient id="gradient_9" gradientUnits="userSpaceOnUse" x1="329.77731" y1="262.06119" x2="338.0737" y2="283.27905"><stop offset="0" stop-color="#D08A5C"/><stop offset="1" stop-color="#F2B585"/></linearGradient></defs><path fill="url(#gradient_9)" transform="translate(-121 -207)" d="M346.947 244.671C348.404 246.827 344.741 253.953 343.666 256.277C343.76 256.317 347.941 256.387 349.719 256.884L352.585 249.727C353.075 251.385 349.26 259.625 348.269 261.387C342.801 271.112 335.241 280.195 327.598 288.246C326.051 289.979 324.521 291.75 322.838 293.35C320.421 293.369 319.214 292.488 317.252 291.27L319.575 288.539C329.325 276.175 339.647 265.628 345.002 250.552C345.606 248.851 346.072 246.66 346.733 245.15L346.947 244.671Z"/><path fill="#DEA071" transform="translate(-121 -207)" d="M319.575 288.539L319.879 289.967C321.513 289.885 323.923 288.657 326.992 288.311L327.598 288.246C326.051 289.979 324.521 291.75 322.838 293.35C320.421 293.369 319.214 292.488 317.252 291.27L319.575 288.539Z"/><defs><linearGradient id="gradient_10" gradientUnits="userSpaceOnUse" x1="310.33115" y1="309.96478" x2="315.72507" y2="291.34113"><stop offset="0" stop-color="#A15732"/><stop offset="1" stop-color="#CF8A60"/></linearGradient></defs><path fill="url(#gradient_10)" transform="translate(-121 -207)" d="M302.958 309.798C307.357 303.19 312.134 297.307 317.252 291.27C319.214 292.488 320.421 293.369 322.838 293.35C320.268 296.328 311.744 304.586 311.078 307.32C309.876 309.103 310.514 308.597 308.722 309.447C306.119 309.02 305.056 308.448 302.958 309.798Z"/><path fill="#8E4926" transform="translate(-121 -207)" d="M307.669 217.631C312.46 216.887 317.996 216.042 322.801 215.938C320.531 217.466 313.597 218.03 310.773 218.432L308.015 218.697L307.669 217.631Z"/><path fill="#0E3A59" transform="translate(-121 -207)" d="M284.622 320.796C287.959 317.166 292.736 313.713 296.353 310.148C275.457 342.706 253.383 383.617 212.648 392.606C208.507 393.519 196.002 395.58 192.167 394.145C187.523 394.049 180.769 392.471 176.458 390.775C179.911 391.069 183.37 391.289 186.832 391.436C187.616 391.303 188.323 391.267 189.111 391.189C214.736 388.658 228.123 378.752 243.836 359.754C245.27 357.67 248.19 353.917 248.387 351.504C251.339 349.084 254.519 345.339 256.977 342.328C251.999 345.15 229.582 358.627 225.31 356.993C226.167 355.414 227.646 354.904 229.395 354.064L229.346 353.326C231.326 351.997 237.882 349.001 240.5 347.688C246.851 344.518 253.096 341.138 259.224 337.556C267.055 332.979 277.525 324.517 284.622 320.796Z"/><path fill="#6E747C" transform="translate(-121 -207)" d="M284.622 320.796C283.338 323.805 276.909 330.082 274.573 333.158C267.121 342.973 259.599 352.776 251.645 362.192C250.148 363.964 249.086 364.73 246.902 364.086L245.403 362.532L244.76 362.544C244.816 364.164 245.381 364.735 246.295 366.034L246.001 366.915L245.224 367.162L241.49 363.927C242.939 362.422 243.713 362.122 244.142 360.326L243.836 359.754C245.27 357.67 248.19 353.917 248.387 351.504C251.339 349.084 254.519 345.339 256.977 342.328C251.999 345.15 229.582 358.627 225.31 356.993C226.167 355.414 227.646 354.904 229.395 354.064L229.346 353.326C231.326 351.997 237.882 349.001 240.5 347.688C246.851 344.518 253.096 341.138 259.224 337.556C267.055 332.979 277.525 324.517 284.622 320.796Z"/><path fill="#0B1017" transform="translate(-121 -207)" d="M176.458 390.775C179.911 391.069 183.37 391.289 186.832 391.436C193.488 391.808 189.174 392.565 192.862 393.755L192.167 394.145C187.523 394.049 180.769 392.471 176.458 390.775Z"/><path fill="#0E3A59" transform="translate(-121 -207)" d="M216.287 235.414C223.551 235.572 228.536 239.352 229.214 246.884C230.439 260.5 223.092 275.296 215.048 285.851C209.696 292.873 201.652 301.65 192.636 303.241C187.838 304.043 183.226 301.434 182.756 296.19C181.704 284.449 191.785 280.192 198.646 272.116C205.54 264.396 203.871 263.352 213.964 257.829C209.499 268.013 209.091 271.535 200.429 279.398C197.174 282.354 193.002 289.796 190.983 293.794C204.851 285.255 214.858 270.666 218.336 254.718C219.219 250.668 219.143 246.755 215.336 244.932C214.003 244.294 215.987 236.737 216.287 235.414Z"/><defs><linearGradient id="gradient_11" gradientUnits="userSpaceOnUse" x1="213.58452" y1="263.34412" x2="220.81911" y2="264.97168"><stop offset="0" stop-color="#6B7C85"/><stop offset="1" stop-color="#BCA298"/></linearGradient></defs><path fill="url(#gradient_11)" transform="translate(-121 -207)" d="M207.405 282.378C213.687 276.062 222.772 257.07 222.012 247.681C221.827 245.397 221.744 242.605 221.582 240.262C228.194 257.832 219.253 273.132 208.028 286.373C207.231 285.236 207.422 283.85 207.405 282.378Z"/><path fill="#424D57" transform="translate(-121 -207)" d="M208.028 286.373C206.708 288.123 204.569 291.185 202.303 289.896L202.161 288.568C203.025 285.879 205.267 284.167 207.405 282.378C207.422 283.85 207.231 285.236 208.028 286.373Z"/><path fill="#0E3A59" transform="translate(-121 -207)" d="M233.132 253.951C260.348 253.787 240.831 296.496 231.047 306.274C224.838 312.479 219.272 320.832 209.287 322.005C203.866 322.642 200.332 318.052 200.06 313.184C199.957 304.071 210.098 297.377 215.919 291.234C222.545 282.998 221.884 281.9 231.399 276.768C229.903 280.703 227.782 286.532 225.245 289.773C218.111 298.887 213.69 300.467 209.245 311.943C220.484 305.148 229.273 293.177 233.897 280.968C235.561 276.575 237.466 269.336 235.423 264.9C234.121 264.073 234.657 264.288 232.706 264.639L231.954 264.09C231.385 261.111 232.507 257.046 233.132 253.951Z"/><defs><linearGradient id="gradient_12" gradientUnits="userSpaceOnUse" x1="239.01338" y1="279.05307" x2="235.30348" y2="277.73676"><stop offset="0" stop-color="#A28F86"/><stop offset="1" stop-color="#838389"/></linearGradient></defs><path fill="url(#gradient_12)" transform="translate(-121 -207)" d="M229.683 294.001C235.993 281.948 241.181 273.137 238.661 258.926C242.632 267.542 242.708 272.598 239.289 281.931C237.472 286.799 235.174 291.474 232.429 295.885C231.198 295.233 230.583 295.028 229.683 294.001Z"/><path fill="#575D62" transform="translate(-121 -207)" d="M232.429 295.885C230.572 298.849 224.81 307.134 221.706 308.21L221.312 307.663C221.641 304.744 227.615 296.795 229.683 294.001C230.583 295.028 231.198 295.233 232.429 295.885Z"/><defs><linearGradient id="gradient_13" gradientUnits="userSpaceOnUse" x1="178.62999" y1="336.78207" x2="189.46945" y2="309.38354"><stop offset="0" stop-color="#7F3B1C"/><stop offset="1" stop-color="#BE7B4F"/></linearGradient></defs><path fill="url(#gradient_13)" transform="translate(-121 -207)" d="M168.729 315.285C172.439 313.755 178.846 311.875 182.422 309.868C182.891 308.866 183.29 308.014 183.619 307.31L184.305 307.489C188.49 308.476 193.73 307.797 195.397 309.66L195.35 312.336C195.436 316.282 195.761 317.932 197.489 321.507C200.783 325.026 202.551 326.139 207.284 327.433L209.19 335.802L200.358 338.331L197.067 339.193C193.328 339.73 189.693 340.89 185.952 341.065C184.328 340.198 184.998 338.698 184.262 337.901C182.657 336.163 172.277 333.917 169.714 333.167C168.889 327.244 168.559 321.262 168.729 315.285Z"/><path fill="#A05D37" transform="translate(-121 -207)" d="M197.489 321.507C200.783 325.026 202.551 326.139 207.284 327.433L209.19 335.802L200.358 338.331C199.628 336.553 197.563 324.421 197.092 321.796L197.489 321.507Z"/><path fill="#BE774E" transform="translate(-121 -207)" d="M197.067 339.193C196.179 335.63 193.252 323.446 195.682 320.78L197.092 321.796C197.563 324.421 199.628 336.553 200.358 338.331L197.067 339.193Z"/><path fill="#BE774E" transform="translate(-121 -207)" d="M184.305 307.489C188.49 308.476 193.73 307.797 195.397 309.66L195.35 312.336C191.67 310.235 187.522 309.548 184.305 307.489Z"/><path fill="#0E3A59" transform="translate(-121 -207)" d="M229.346 353.326L229.395 354.064C227.646 354.904 226.167 355.414 225.31 356.993C229.582 358.627 251.999 345.15 256.977 342.328C254.519 345.339 251.339 349.084 248.387 351.504C240.665 355.73 233.216 359.902 224.974 363.369C204.154 372.125 178.107 377.096 155.877 371.156C154.946 370.907 154.179 370.677 153.365 370.182C153.262 369.315 153.06 369.364 152.365 368.564L152.948 367.115C185.804 368.692 198.341 365.139 229.346 353.326Z"/><path fill="#0E3A59" transform="translate(-121 -207)" d="M306.676 224.201C308.215 223.976 310.336 223.901 311.917 223.866C331.252 223.429 346.68 228.501 338.697 250.594C339.142 242.975 337.046 239.581 330.514 235.818C317.67 231.113 300.271 234.669 287.641 238.463L285.155 227.963C292.913 226.129 298.754 224.967 306.676 224.201Z"/><defs><linearGradient id="gradient_14" gradientUnits="userSpaceOnUse" x1="246.39778" y1="299.72607" x2="256.41373" y2="301.00528"><stop offset="0" stop-color="#545C65"/><stop offset="1" stop-color="#837671"/></linearGradient></defs><path fill="url(#gradient_14)" transform="translate(-121 -207)" d="M248.554 282.551C249.305 278.791 249.334 274.976 252.145 272.991C260.355 271.515 265.58 285.387 263.489 292.975C263.234 299.231 258.873 311.698 254.047 315.78C251.7 317.765 249.985 318.5 247.156 319.757C244.766 321.32 242.73 322.191 240.158 323.369C237.438 324.885 233.874 326.339 230.976 327.615C237.136 322.29 239.204 320.058 244.203 313.386C248.197 306.526 255.588 293.457 252.508 284.964C252.034 283.656 249.845 283.489 248.547 283.186L248.554 282.551Z"/><path fill="#0E3A59" transform="translate(-121 -207)" d="M258.522 293.734C260.729 290.319 258.314 292.154 260.02 289.846L261.495 289.558L262.396 290.176C262.604 291.394 262.557 292.312 263.489 292.975C263.234 299.231 258.873 311.698 254.047 315.78C251.7 317.765 249.985 318.5 247.156 319.757C247.208 318.564 252.413 310.027 253.395 308.105C256.146 302.719 257.106 299.568 258.522 293.734Z"/><path fill="#575D62" transform="translate(-121 -207)" d="M248.554 282.551C249.305 278.791 249.334 274.976 252.145 272.991C260.355 271.515 265.58 285.387 263.489 292.975C262.557 292.312 262.604 291.394 262.396 290.176L261.495 289.558L260.02 289.846C258.314 292.154 260.729 290.319 258.522 293.734C258.575 290.683 258.295 283.218 256.79 280.698C255.986 283.648 256.954 287.472 256.199 291.269L256.103 291.742C254.782 288.538 257.261 284.889 255.162 281.905C253.091 280.788 252.779 281.82 250.514 281.591L250.345 279.119C249.742 280.625 249.417 281.168 248.554 282.551Z"/><path fill="#424D57" transform="translate(-121 -207)" d="M248.554 282.551C249.417 281.168 249.742 280.625 250.345 279.119L250.514 281.591C252.779 281.82 253.091 280.788 255.162 281.905C257.261 284.889 254.782 288.538 256.103 291.742C254.233 299.696 250.791 307.195 245.979 313.798L244.203 313.386C248.197 306.526 255.588 293.457 252.508 284.964C252.034 283.656 249.845 283.489 248.547 283.186L248.554 282.551Z"/><path fill="#424D57" transform="translate(-121 -207)" d="M244.203 313.386L245.979 313.798C243.017 317.909 242.949 321.054 240.158 323.369C237.438 324.885 233.874 326.339 230.976 327.615C237.136 322.29 239.204 320.058 244.203 313.386Z"/><defs><linearGradient id="gradient_15" gradientUnits="userSpaceOnUse" x1="149.61534" y1="335.74332" x2="163.33745" y2="309.70483"><stop offset="0" stop-color="#7D3E1F"/><stop offset="1" stop-color="#B26C41"/></linearGradient></defs><path fill="url(#gradient_15)" transform="translate(-121 -207)" d="M152.799 306.433C155.805 307.594 160.377 309.823 163.122 308.52C163.651 308.268 163.487 308.358 164.19 308.669C153.83 321.298 146.607 335.04 166.905 342.281C154.447 340.311 141.872 336.917 144.661 321.075C145.119 318.472 146.989 313.164 148.689 311.157C150.988 309.748 151.296 308.794 152.799 306.433Z"/><defs><linearGradient id="gradient_16" gradientUnits="userSpaceOnUse" x1="194.62215" y1="374.68451" x2="195.93222" y2="383.04025"><stop offset="0" stop-color="#142237"/><stop offset="1" stop-color="#0D385F"/></linearGradient></defs><path fill="url(#gradient_16)" transform="translate(-121 -207)" d="M228.867 368.166C224.131 371.701 219.055 375.563 213.828 378.295C200.164 385.437 178.53 387.869 164.103 381.8L164.675 381.195L164.43 379.517C187.724 381.547 207.525 377.343 228.867 368.166Z"/><path fill="#0E3A59" transform="translate(-121 -207)" d="M247.858 296.011C247.226 305.175 238.277 313.031 232.746 319.362C230.444 321.997 229.025 325.404 227.817 328.667C224.429 330.239 221.677 331.366 218.183 332.691C216.507 323.971 227.342 316.244 232.125 310.734C238.063 303.894 239.766 300.278 247.858 296.011Z"/><defs><linearGradient id="gradient_17" gradientUnits="userSpaceOnUse" x1="159.98442" y1="308.76089" x2="164.51871" y2="296.2305"><stop offset="0" stop-color="#B97146"/><stop offset="1" stop-color="#DD986A"/></linearGradient></defs><path fill="url(#gradient_17)" transform="translate(-121 -207)" d="M167.956 289.958C171.265 290.535 174.049 290.652 177.391 290.114L177.411 296.139L174.016 299.282C170.285 302.426 167.611 305.16 164.19 308.669C163.487 308.358 163.651 308.268 163.122 308.52C160.377 309.823 155.805 307.594 152.799 306.433C151.296 308.794 150.988 309.748 148.689 311.157C151.417 305.022 158.885 297.859 163.769 293.439C165.142 292.238 166.471 291.015 167.956 289.958Z"/><path fill="#DEA071" transform="translate(-121 -207)" d="M167.956 289.958C171.265 290.535 174.049 290.652 177.391 290.114L177.411 296.139L174.016 299.282C170.975 296.338 165.768 300.572 163.769 293.439C165.142 292.238 166.471 291.015 167.956 289.958Z"/><path fill="#8E4926" transform="translate(-121 -207)" d="M311.078 307.32L313.216 307.812L313.518 308.561C312.538 309.796 311.245 311.021 311.238 312.496C310.597 313.545 307.586 317.104 306.67 318.157C297.748 328.399 293.939 337.416 290.613 350.558C290.384 334.317 293.588 323.139 302.958 309.798C305.056 308.448 306.119 309.02 308.722 309.447C310.514 308.597 309.876 309.103 311.078 307.32Z"/><path fill="#424D57" transform="translate(-121 -207)" d="M267.743 290.541C274.451 292.068 275.88 294.903 278.125 300.93C276.477 302.429 273.161 304.509 271.212 305.816C270.097 306.624 269.216 307.493 267.906 307.582C268.333 305.777 268.411 304.937 268.556 303.144C267.97 301.762 267.585 301.959 265.914 301.172C265.849 300.793 267.552 291.934 267.743 290.541Z"/><path fill="#0B1017" transform="translate(-121 -207)" d="M137.283 362.889C142.603 364.608 147.433 366.14 152.948 367.115L152.365 368.564C153.06 369.364 153.262 369.315 153.365 370.182C147.473 368.656 142.499 365.906 137.283 362.889Z"/><path fill="#0B1017" transform="translate(-121 -207)" d="M146.939 299.264C151.385 295.188 157.903 289.021 163.093 286.315C157.794 291.132 152.865 295.417 148.514 301.165L146.939 299.264Z"/><path fill="#0B1017" transform="translate(-121 -207)" d="M164.103 381.8C160.681 380.728 158.276 379.431 155.403 377.334C158.839 378.352 160.884 378.863 164.43 379.517L164.675 381.195L164.103 381.8Z"/><path fill="#808185" transform="translate(-121 -207)" d="M308.015 218.697C304.455 219.41 299.018 219.817 295.397 220.027C298.552 219.799 303.664 218.186 307.669 217.631L308.015 218.697Z"/><path fill="#0E3A59" transform="translate(-121 -207)" d="M173.608 266.902L180.331 262.615L176.82 267.542C175.128 267.807 175.314 267.584 173.608 266.902Z"/></g></svg>